<?xml version="1.0" encoding="utf-8"?><svg width="165" height="136" viewBox="0 0 165 136" xmlns="http://www.w3.org/2000/svg" xmlns:xlink="http://www.w3.org/1999/xlink"><view id="Android" viewBox="32 0 36 33"/><svg width="36" height="33" viewBox="0 0 36 33" x="32" xmlns="http://www.w3.org/2000/svg"><g clip-path="url(#aA)"><path d="M26.12 12.246l2.898-5.273c.163-.296.065-.67-.213-.843s-.64-.072-.8.224l-2.936 5.34c-2.24-1.075-4.76-1.674-7.472-1.674s-5.232.6-7.472 1.674L7.19 6.354a.57.57 0 00-.802-.224.634.634 0 00-.213.843l2.898 5.273C4.077 15.09.693 20.403.134 26.623h34.93c-.56-6.22-3.943-11.532-8.944-14.377zM9.58 21.47c-.8 0-1.464-.69-1.464-1.538s.658-1.538 1.464-1.538 1.464.69 1.464 1.538-.654 1.538-1.464 1.538zm16.036 0c-.8 0-1.464-.69-1.464-1.538s.658-1.538 1.464-1.538 1.464.69 1.464 1.538-.654 1.538-1.464 1.538z"/></g><defs><clipPath id="aA"><path transform="translate(.113 .037)" d="M0 0h34.954v32.05H0z"/></clipPath></defs></svg><view id="Angular" viewBox="32 70 29 33"/><svg width="29" height="33" viewBox="0 0 29 33" x="32" y="70" xmlns="http://www.w3.org/2000/svg"><g clip-path="url(#bA)"><path d="M2.62 25.048l12.693 6.976 12.758-7.07L30.45 5.23 15.298.024.242 5.322l2.38 19.726z"/><path d="M19.03 16.956l-3.767 1.762h-3.97l-1.866 4.668-3.472.064 9.31-20.71 3.767 14.214zm-.364-.887l-3.378-6.688-2.77 6.572h2.746l3.403.115z"/><path d="M18.43 15.96h-3.16l-.007 2.754 4.372.004 2.044 4.733 3.322.06-9.737-20.77.025 6.64 3.144 6.578z"/></g><defs><clipPath id="bA"><path transform="translate(.242 .024)" d="M0 0h28.696v32.05H0z"/></clipPath></defs></svg><view id="Perl" viewBox="68 0 33 35"/><svg width="33" height="35" viewBox="0 0 33 35" x="68" xmlns="http://www.w3.org/2000/svg"><path d="M16.337 33.692c8.776 0 15.89-7.474 15.89-16.693S25.114.305 16.337.305.446 7.78.446 17s7.115 16.693 15.89 16.693z"/><path fill-rule="evenodd" d="M13.683 33.945C10.16 33.3 7.138 31.6 4.64 28.89c-2.124-2.306-3.585-5.2-4.25-8.447-.287-1.398-.287-5.397 0-6.795a19.16 19.16 0 012.514-6.254C3.692 6.14 6 3.714 7.204 2.887a17.304 17.304 0 015.955-2.64c1.33-.302 5.138-.302 6.47 0a15.94 15.94 0 018.267 4.718c2.326 2.444 3.79 5.275 4.492 8.683.287 1.398.287 5.397 0 6.795-.7 3.408-2.165 6.24-4.492 8.683-2.3 2.405-4.95 3.94-8.142 4.696-1.13.268-4.872.345-6.06.124zm2.93-3.398c0-1.116-.015-1.196-.23-1.196s-.23.077-.22 1.037c.01 1.134.086 1.483.306 1.406.102-.036.143-.397.143-1.247zm-1.71.384c.302-.318.4-.5.4-.853 0-.35-.04-.435-.193-.404-.106.02-.233.202-.283.4s-.253.507-.452.683c-.358.32-.372.583-.03.583.097 0 .353-.185.568-.4zm3.785.28c.042-.072-.086-.276-.285-.452s-.402-.485-.452-.683-.177-.38-.283-.4c-.152-.03-.193.054-.193.404 0 .694.948 1.58 1.212 1.133zm-5.232-2.167c0-.07-.16-.22-.357-.332-1.28-.737-2.782-1.91-3.617-2.823-1.63-1.784-2.363-3.562-2.38-5.767-.012-1.474.17-2.243.852-3.62.66-1.33 1.426-2.336 3.533-4.635 2.352-2.568 2.894-3.245 3.303-4.132.3-.63.33-.86.37-2.19.05-1.654-.046-2.795-.235-2.795-.086 0-.102.43-.053 1.393.157 3.084-.388 4.04-3.772 6.62-2.33 1.776-3.4 2.74-4.208 3.794-1.144 1.493-1.65 2.786-1.777 4.537-.306 4.222 2.24 7.882 6.735 9.68.992.396 1.608.5 1.608.272zm7.774-.342c1.545-.676 2.72-1.493 3.827-2.662 1.688-1.783 2.39-3.45 2.497-5.917.092-2.164-.355-3.595-1.63-5.217-.874-1.11-1.814-1.905-4.35-3.675-3.412-2.38-4.213-3.33-4.213-4.987 0-.44.076-1.066.168-1.388.158-.55.153-.93-.005-.495-.15.41-.493.222-.678-.375l-.178-.573.067.543c.24 1.926.268 2.734.163 4.42-.143 2.28-.41 3.838-1.142 6.672-.727 2.812-.858 3.832-.768 5.98.076 1.816.318 3.174.88 4.947.522 1.645.62 1.77 1.58 2.028.528.142 1.028.38 1.426.683.373.283.748.468.957.472.2.004.82-.2 1.4-.455zm-.347-.818c-.143-.15-.077-.28.484-.93 1.765-2.048 2.557-4.162 2.58-6.893.015-1.86-.376-3.093-1.57-4.947-.54-.838-2.44-2.93-3.36-3.696-.675-.563-1.367-1.522-1.49-2.065-.125-.55.226-.404.632.262.2.326.63.806.96 1.065l2.158 1.69c2.955 2.307 4.27 4.274 4.565 6.83.17 1.48-.1 3.007-.788 4.425-.712 1.47-2 3.072-3.122 3.852-.684.48-.9.563-1.05.406zm-5.784.156c.033-.09-.262-.675-.657-1.297-1.045-1.647-1.5-2.556-1.925-3.846-.358-1.088-.377-1.236-.38-2.896-.004-2.5.255-3.306 2.15-6.612 1.787-3.118 2.03-4.325 1.828-9.122l-.182-3.18c-.19-.198-.23.31-.16 2.04.138 3.443-.073 5.36-.764 6.934-.47 1.07-.997 1.883-2.413 3.725-1.972 2.564-2.53 3.924-2.518 6.153.007 1.528.204 2.467.792 3.774.636 1.415 1.807 2.843 3.274 3.994.676.53.86.593.955.33z"/></svg><view id="Ruby" viewBox="0 37 31 33"/><svg width="31" height="33" viewBox="0 0 31 33" y="37" xmlns="http://www.w3.org/2000/svg"><path d="M21.54 19.015L9.317 27.29l18.468 2.65-6.245-10.924zM29.533 6.84l-1.637 2.582-5.612 8.874c-.104.165-.24.296-.093.55l5.395 9.416c.283.496.57 1 .937 1.466l1.09-22.862-.08-.025zm-24.66 9.77c.085.084.296.133.393.082l5.172-2.738c.552-.315.977-.88 1.454-1.34l4.725-4.564c.097-.094.2-.184.268-.302l1.696-3.527-1.994-.777c-.09-.033-.23.032-.327.09L11.71 6.25c-.738.488-1.34 1.206-1.993 1.833l-3.143 3.05a5.517 5.517 0 00-.74.912l-2.12 3.32 1.16 1.246zm6.333-1.485L8.602 26.684l12.236-8.282-9.632-3.275zm6.87-6.424l3.53 9.018 6.87-10.843-10.4 1.825zm-6.724 5.64l9.44 3.22L17.3 8.63l-5.948 5.714zM5.004 18.84L1.7 27.138l6.292-.195-2.988-8.1zm3.063 6.177L8.146 25l2.293-10.007L5.39 17.75l2.677 7.268zM27.205 6.342L24.2 5.504l-4.335-1.196c-.18-.05-.31-.083-.417.145l-1.555 3.283c-.016.034-.013.078-.025.163l9.345-1.488.002-.07zm-5.83-2.5l8.2 2.38-1.353-4.05-6.824 1.6-.012.08zm2.48 26.222l-6.72-.963-8.374-1.18c-1.014-.123-2.056-.01-3.084.01l-2.535.077a.322.322 0 00-.26.12l20.958 2.036.015-.098zm-22.017-5.46l2.7-6.583c.09-.22.084-.37-.093-.546L3.303 16.24l-1.65 8.548.06.03c.042-.07.092-.137.123-.213zm17.744-21.34l4.6-1.092c.1-.023.196-.058.293-.087l-.015-.08-6.58.93c.618.284 1.094.496 1.71.328z"/></svg><view id="Wordpress" viewBox="31 37 32 33"/><svg width="32" height="33" viewBox="0 0 32 33" x="31" y="37" xmlns="http://www.w3.org/2000/svg"><g clip-path="url(#eA)"><path d="M.82 16.05c0 6.34 3.5 11.824 8.598 14.42L2.14 9.53a16.62 16.62 0 00-1.32 6.52zm15.522 1.4l-4.58 13.97a14.65 14.65 0 004.31.653 14.61 14.61 0 005.067-.908 1.8 1.8 0 01-.109-.222L16.342 17.45zm10.03-2.2c0-1.98-.68-3.35-1.258-4.417-.773-1.32-1.498-2.438-1.498-3.76 0-1.47 1.063-2.842 2.562-2.842.07 0 .133.01.197.013-2.712-2.6-6.33-4.208-10.3-4.208-5.33 0-9.85 2.826-12.605 7.003.358.014 4.907.034 4.907.034.822-.048.92 1.22.1 1.322 0 0-.827.1-1.747.152l5.555 17.355 3.338-10.515-2.376-6.84c-.822-.05-1.6-.072-1.6-.072-.822-.05-.726-1.242.095-1.242h8.085c.822 0 .918 1.14.096 1.242l-1.745.112L23.7 25.78l1.52-5.35c.774-2.082 1.162-3.818 1.162-5.2zm3.088-6.88a12.93 12.93 0 01.103 1.649c0 1.625-.3 3.452-1.16 5.738l-4.66 14.15c4.536-2.777 7.586-7.938 7.586-13.85a16.57 16.57 0 00-1.87-7.688z"/></g><defs><clipPath id="eA"><path transform="translate(.819 .024)" d="M0 0h30.5v32.05H0z"/></clipPath></defs></svg><view id="cPlus" viewBox="63 37 31 33"/><svg width="31" height="33" viewBox="0 0 31 33" x="63" y="37" xmlns="http://www.w3.org/2000/svg"><g clip-path="url(#fA)"><path d="M28.62 23.835c.21-.383.342-.815.342-1.203V9.172c0-.388-.13-.82-.342-1.203l-13.088 7.933 13.088 7.933zM16.695 31.477l11.103-6.73c.32-.194.61-.53.82-.912L15.53 15.902 2.442 23.835c.21.383.502.718.82.912l11.103 6.73c.64.388 1.686.388 2.326 0z"/><path d="M28.62 7.97c-.21-.383-.502-.718-.82-.912L16.695.328c-.64-.388-1.686-.388-2.326 0L3.265 7.058c-.64.388-1.163 1.34-1.163 2.115v13.46c0 .388.13.82.342 1.203L28.62 7.97z"/><g><path d="M15.532 25.3c-4.937 0-8.953-4.216-8.953-9.4s4.016-9.4 8.953-9.4c3.185 0 6.156 1.8 7.753 4.696L19.4 13.554c-.8-1.45-2.285-2.35-3.88-2.35-2.468 0-4.476 2.108-4.476 4.7s2.008 4.7 4.476 4.7c1.593 0 3.08-.9 3.88-2.35l3.875 2.354c-1.597 2.897-4.568 4.697-7.753 4.697zm8.952-9.92H23.5v-1.044h-.995v1.044H21.5v1.044h.995v1.044h.995v-1.044h.995V15.38zm3.73 0h-.995v-1.044h-.995v1.044h-.995v1.044h.995v1.044h.995v-1.044h.995V15.38z"/></g></g><defs><clipPath id="fA"><path transform="translate(.195 .037)" d="M0 0h30.5v32.05H0z"/></clipPath></defs></svg><view id="cSharp" viewBox="101 0 32 33"/><svg width="32" height="33" viewBox="0 0 32 33" x="101" xmlns="http://www.w3.org/2000/svg"><g clip-path="url(#gA)"><path d="M29.458 9.512c0-.53-.107-1.008-.33-1.408-.215-.4-.538-.73-.968-.99L17.426.62C16.457.037 15.53.054 14.57.645L3.896 7.113c-.877.53-1.3 1.347-1.3 2.408v13.074c0 .522.108.982.314 1.382.215.41.546.756.985 1.026L14.57 31.47c.96.59 1.895.617 2.855.026l10.733-6.494a2.55 2.55 0 00.985-1.026c.207-.4.314-.86.314-1.382V9.512z"/><path d="M19.892 18.336c-.76 1.417-2.21 2.382-3.873 2.382-1.655 0-3.095-.948-3.856-2.356a4.83 4.83 0 01-.588-2.312c0-2.582 1.986-4.668 4.444-4.668 1.638 0 3.07.94 3.84 2.33l3.88-2.347c-1.547-2.8-4.427-4.686-7.73-4.686-4.932 0-8.92 4.2-8.92 9.37 0 1.695.43 3.295 1.183 4.668 1.54 2.808 4.435 4.703 7.745 4.703 3.318 0 6.215-1.904 7.754-4.73l-3.88-2.356zm4.907-4.503h-.885v4.494h.885v-4.494zm1.96 0h-.885v4.494h.885v-4.494z"/><path d="M27.48 14.59h-4.278v.93h4.278v-.93zm0 2.052h-4.278v.93h4.278v-.93z"/></g><defs><clipPath id="gA"><path transform="translate(.772 .037)" d="M0 0h30.5v32.05H0z"/></clipPath></defs></svg><view id="html5" viewBox="101 33 32 33"/><svg width="32" height="33" viewBox="0 0 32 33" x="101" y="33" xmlns="http://www.w3.org/2000/svg"><g clip-path="url(#hA)"><path d="M2.79.037c-.28 0-.49.24-.464.533L4.69 28.426c.025.293.266.598.537.677l10.032 2.926c.27.08.712.08.983 0l10.062-2.93c.27-.08.512-.383.537-.676L29.206.57c.025-.293-.184-.533-.464-.533H2.79zm21.383 6.39l-.228 2.672-.04.4H11.498c-.28 0-.49.24-.464.533l.22 2.566c.025.293.275.533.555.533h11.34c.25 0 .436.214.413.476L22.7 23.72c-.014.165-.246.364-.517.442l-6.427 1.87c-.004.001-.23-.063-.5-.14l-5.934-1.73c-.27-.08-.512-.383-.537-.677l-.382-4.504c-.025-.293.184-.533.465-.533h2.37c.28 0 .53.24.555.533l.15 1.763c.025.293.267.596.537.673l3.27.927.494-.14 2.78-.79a.82.82 0 00.538-.673l.3-3.532c.025-.293-.184-.533-.464-.533H8.72c-.28 0-.53-.24-.555-.534l-.826-9.72c-.022-.262.19-.476.47-.476h15.894c.28 0 .492.214.47.476z"/></g><defs><clipPath id="hA"><path transform="translate(.51 .037)" d="M0 0h30.5v32.05H0z"/></clipPath></defs></svg><view id="iOS" viewBox="0 70 32 33"/><svg width="32" height="33" viewBox="0 0 32 33" y="70" xmlns="http://www.w3.org/2000/svg"><g clip-path="url(#iA)"><path d="M11.6 32.088c-4.54-.028-8.297-9.765-8.297-14.724 0-8.1 5.785-9.874 8.014-9.874 1.005 0 2.077.414 3.024.78.662.256 1.346.52 1.727.52.228 0 .765-.225 1.24-.422 1-.423 2.27-.948 3.733-.948 1.102 0 4.42.252 6.412 3.397l.467.737-.672.533c-.96.76-2.712 2.15-2.712 4.9 0 3.257 1.984 4.5 2.937 5.112.42.266.856.54.856 1.14 0 .4-2.975 8.8-7.295 8.8-1.057 0-1.804-.334-2.463-.628-.667-.298-1.242-.555-2.193-.555-.482 0-1.1.24-1.736.493-.882.346-1.88.738-3 .738h-.03zM21.487.037C21.6 4.3 18.697 7.255 15.8 7.07c-.477-3.4 2.897-7.033 5.687-7.033z"/></g><defs><clipPath id="iA"><path transform="translate(.55 .037)" d="M0 0h30.5v32.05H0z"/></clipPath></defs></svg><view id="java" viewBox="51 103 31 33"/><svg width="31" height="33" viewBox="0 0 31 33" x="51" y="103" xmlns="http://www.w3.org/2000/svg"><g clip-path="url(#jA)"><path d="M15.145 5.963c-1.4 1.042-3.008 2.222-3.864 4.175-1.487 3.408 3.043 7.125 3.236 7.28.045.037.1.055.153.055a.25.25 0 00.16-.06c.1-.08.115-.213.06-.323-.016-.033-1.642-3.35-1.582-5.73.02-.83 1.126-1.77 2.295-2.765 1.07-.912 2.285-1.946 2.995-3.155 1.56-2.662-.174-5.28-.192-5.305-.07-.102-.196-.138-.305-.088s-.17.174-.144.295c.003.017.34 1.748-.597 3.53-.386.737-1.235 1.364-2.218 2.1zm5.94 1.173c.1-.08.13-.222.07-.337s-.2-.165-.308-.12c-.24.096-5.865 2.373-5.865 5.126 0 1.897.77 2.9 1.335 3.63.22.287.412.535.475.747.177.6-.242 1.712-.42 2.085a.274.274 0 00.06.316.245.245 0 00.163.064c.05 0 .1-.016.143-.047.097-.07 2.364-1.755 1.957-3.783-.15-.77-.512-1.335-.83-1.832-.493-.77-.85-1.327-.3-2.354.633-1.198 3.5-3.474 3.53-3.497zM6.442 18.694a.97.97 0 00.132.87c.6.9 2.77 1.38 6.082 1.38l1.4-.027c5.296-.2 7.26-1.932 7.34-2.006.088-.08.112-.214.057-.322s-.173-.162-.286-.13c-1.865.535-5.348.725-7.764.725-2.703 0-4.08-.204-4.417-.355.173-.25 1.24-.695 2.56-.968.126-.026.213-.15.2-.283s-.12-.237-.25-.237c-.775 0-4.66.065-5.067 1.355zm17.72-1.784c-1.092 0-2.128.575-2.172.6a.27.27 0 00-.124.295c.028.115.128.2.242.2.023 0 2.33.02 2.54 1.404.185 1.194-2.183 3.13-3.1 3.775a.27.27 0 00-.093.321.25.25 0 00.23.161.23.23 0 00.052-.006c.22-.05 5.387-1.246 4.84-4.406-.333-1.937-1.492-2.343-2.405-2.343zM20.62 22.795a.27.27 0 00-.102-.263l-1.24-.912a.24.24 0 00-.208-.039c-.013.004-1.3.36-3.2.58-.747.088-1.583.134-2.418.134-1.88 0-3.1-.232-3.3-.402-.024-.048-.016-.07-.012-.082.032-.095.207-.208.32-.253.124-.048.2-.2.153-.323s-.17-.2-.298-.18c-1.243.315-1.85.756-1.806 1.3.08.982 2.244 1.486 4.074 1.62l.846.03c3.044 0 6.946-1.003 6.985-1.013a.258.258 0 00.186-.207zm-9.34 2.108a.27.27 0 00.102-.298.252.252 0 00-.245-.184c-.167.005-1.63.074-1.732 1.053a1.05 1.05 0 00.237.794c.525.654 1.943 1.043 4.335 1.2l.854.027c3.04 0 5.088-1 5.173-1.043s.138-.127.143-.223-.04-.188-.12-.238l-1.566-1.004a.24.24 0 00-.18-.033l-2.504.433c-.284.04-.64.06-1.057.06-1.5 0-3.166-.257-3.485-.426-.005-.032.001-.072.046-.106zm2.133 5.597c6.963-.006 10.7-1.307 11.42-2.126.255-.3.282-.564.26-.743-.053-.44-.436-.7-.48-.74a.244.244 0 00-.326.047.27.27 0 00-.002.342c.044.06.07.16-.06.294-.288.282-3.2 1.14-8.024 1.397-.662.036-1.356.055-2.064.055-4.328 0-7.495-.623-7.9-.986.16-.242 1.28-.628 2.472-.847a.262.262 0 00.204-.3.25.25 0 00-.28-.22 6.133 6.133 0 01-.28.02c-1.966.126-4.237.407-4.356 1.47-.036.324.056.62.273.875.53.627 2.057 1.46 9.15 1.46zm12.79-1.894a.24.24 0 00-.288.06c-.01.01-1.057 1.162-4.205 1.837-1.205.254-3.467.382-6.723.382-3.262 0-6.366-.135-6.397-.136-.13-.007-.24.092-.258.226s.065.26.2.292c.032.008 3.285.8 7.734.8 2.133 0 4.2-.182 6.17-.54 3.656-.673 3.912-2.578 3.922-2.66a.268.268 0 00-.143-.27z"/></g><defs><clipPath id="jA"><path transform="translate(.041 .024)" d="M0 0h30.5v32.05H0z"/></clipPath></defs></svg><view id="javascript" viewBox="61 70 31 33"/><svg width="31" height="33" viewBox="0 0 31 33" x="61" y="70" xmlns="http://www.w3.org/2000/svg"><g clip-path="url(#kA)"><path d="M28.602.037H1.99C.914.037.04.953.04 2.083v27.96c0 1.128.873 2.046 1.948 2.046h26.613c1.075 0 1.948-.917 1.948-2.046V2.082C30.55.953 29.677.037 28.602.037zM13.894 18.102c0 .89-.08 1.65-.24 2.276s-.405 1.13-.73 1.523c-.326.388-.733.675-1.22.853s-1.052.27-1.697.27c-.567 0-1.08-.094-1.54-.28a3.21 3.21 0 01-1.171-.803c-.323-.35-.57-.773-.745-1.27S6.3 19.617 6.3 19.01v-.4h1.828c0 1.787.63 2.682 1.89 2.682a2.8 2.8 0 00.862-.12 1.32 1.32 0 00.641-.46c.175-.224.307-.535.398-.936s.137-.925.137-1.572v-10h1.85l-.003 9.898zm10.2 2.902a3.2 3.2 0 01-.802 1.06c-.347.302-.77.536-1.267.708s-1.055.252-1.67.252c-2.73 0-4.17-1.132-4.318-3.398h1.796c.008 1.28.843 1.92 2.502 1.92.368 0 .698-.04.98-.13s.52-.202.708-.352a1.51 1.51 0 00.431-.532 1.52 1.52 0 00.148-.664c0-.254-.038-.454-.11-.607s-.22-.29-.433-.4-.51-.234-.886-.346l-1.482-.427-1.538-.465c-.433-.152-.786-.34-1.062-.56s-.483-.493-.616-.816-.2-.733-.2-1.226c0-.434.087-.837.262-1.208s.425-.693.752-.966.72-.485 1.18-.64.98-.23 1.546-.23c2.64 0 3.983.985 4.024 2.958h-1.766c-.063-.985-.77-1.48-2.122-1.48a3.53 3.53 0 00-.835.094 2.25 2.25 0 00-.667.27 1.33 1.33 0 00-.442.436 1.145 1.145 0 00-.157.6c0 .206.025.375.074.507s.166.258.352.37.462.226.824.337l1.493.41 1.588.48c.447.166.82.367 1.118.603a2.15 2.15 0 01.662.86c.142.338.215.762.215 1.27 0 .475-.096.916-.284 1.32z"/></g><defs><clipPath id="kA"><path transform="translate(.041 .037)" d="M0 0h30.5v32.05H0z"/></clipPath></defs></svg><view id="nodejs" viewBox="92 70 28 33"/><svg width="28" height="33" viewBox="0 0 28 33" x="92" y="70" xmlns="http://www.w3.org/2000/svg"><g clip-path="url(#lA)"><path d="M13.594 32.03c-.42 0-.81-.117-1.175-.323l-3.72-2.322c-.56-.323-.28-.44-.112-.5.755-.265.895-.323 1.68-.794.084-.06.196-.03.28.03l2.854 1.793c.112.06.252.06.336 0l11.163-6.79c.112-.06.168-.176.168-.323V9.25c0-.147-.056-.265-.168-.323l-11.163-6.76c-.112-.06-.252-.06-.336 0L2.235 8.928c-.112.06-.168.206-.168.323V22.8c0 .118.056.265.168.323l3.05 1.852c1.65.882 2.686-.147 2.686-1.176V10.427c0-.176.14-.353.336-.353h1.427a.35.35 0 01.336.353V23.8c0 2.322-1.203 3.674-3.3 3.674-.643 0-1.147 0-2.574-.735l-2.938-1.763C.53 24.534.08 23.71.08 22.83V9.28c0-.882.448-1.705 1.175-2.146L12.42.345c.7-.41 1.65-.41 2.35 0l11.163 6.79c.727.44 1.175 1.264 1.175 2.146v13.55c0 .882-.448 1.705-1.175 2.146l-11.163 6.79a2.752 2.752 0 01-1.175.265zm3.44-9.317c-4.896 0-5.903-2.35-5.903-4.35 0-.176.14-.353.336-.353h1.455c.168 0 .308.118.308.294.224 1.558.867 2.322 3.833 2.322 2.35 0 3.357-.558 3.357-1.88 0-.764-.28-1.323-3.945-1.705-3.05-.323-4.952-1.03-4.952-3.586 0-2.38 1.902-3.79 5.092-3.79 3.58 0 5.344 1.293 5.568 4.115a.49.49 0 01-.084.264c-.056.06-.14.118-.224.118H20.42a.333.333 0 01-.308-.265c-.336-1.617-1.203-2.145-3.497-2.145-2.574 0-2.882.94-2.882 1.646 0 .852.364 1.117 3.833 1.587 3.44.47 5.064 1.146 5.064 3.674-.028 2.586-2.042 4.056-5.596 4.056z"/></g><defs><clipPath id="lA"><path transform="translate(.081 .037)" d="M0 0h27.026v32.05H0z"/></clipPath></defs></svg><view id="php" viewBox="133 0 32 33"/><svg width="32" height="33" viewBox="0 0 32 33" x="133" xmlns="http://www.w3.org/2000/svg"><g clip-path="url(#mB)"><path d="M15.873 8.05C7.32 8.05.618 11.57.618 16.063s6.7 8.013 15.255 8.013 15.255-3.52 15.255-8.013-6.7-8.013-15.255-8.013z"/><path d="M15.873 22.74c-3.655 0-7.028-.715-9.55-1.857l.512-2.15h2.23c1.68 0 3.14-1.197 3.548-2.9l.11-.47a2.74 2.74 0 00-.459-2.276 2.463 2.463 0 00-1.99-1.02H7.6a.642.642 0 00-.616.506l-1.84 7.733c-2.028-1.16-3.264-2.642-3.264-4.232 0-3.62 6.404-6.677 13.984-6.677s13.984 3.058 13.984 6.677-6.404 6.677-13.984 6.677z"/><path opacity=".2" d="M2.525 16.73c0-3.62 6.404-6.677 13.984-6.677 5.308 0 10.03 1.502 12.39 3.644-2.05-2.49-7.18-4.312-13.025-4.312-7.58 0-13.984 3.058-13.984 6.677 0 1.066.566 2.08 1.542 2.984-.583-.725-.907-1.506-.907-2.316z"/><path d="M7.153 17.398l.953-4.006h2.168c.39 0 .75.184.988.507a1.36 1.36 0 01.228 1.131l-.11.47c-.266 1.118-1.218 1.898-2.315 1.898H7.153zM24.894 12.056H22.23c-.292 0-.546.2-.616.506l-1.275 5.355-.632 2.658a.67.67 0 00.462.809c.052.014.104.02.155.02a.641.641 0 00.616-.506l.516-2.165h2.23c1.68 0 3.14-1.197 3.548-2.9l.1-.47a2.74 2.74 0 00-.459-2.277 2.467 2.467 0 00-2-1.02zM26.1 15.03l-.1.47c-.266 1.118-1.218 1.898-2.315 1.898h-1.912l.953-4.006h2.168a1.22 1.22 0 01.988.507 1.36 1.36 0 01.228 1.131zm-6.8-2.16a2.06 2.06 0 00-1.633-.815h-2.015l.2-1.216a.67.67 0 00-.51-.776c-.344-.076-.677.174-.74.537l-1.27 7.345a.67.67 0 00.51.776.55.55 0 00.114.01c.302 0 .57-.226.624-.548l.83-4.793h2.246c.252 0 .487.117.646.323a.91.91 0 01.17.73l-.7 3.485c-.07.36.15.714.493.8a.58.58 0 00.13.014c.295 0 .56-.216.622-.532l.7-3.485a2.29 2.29 0 00-.428-1.845z"/><path d="M1.118 16.063c0-1.973 1.476-3.843 4.152-5.25C7.928 9.418 11.658 8.55 15.873 8.55s7.945.868 10.603 2.264c2.676 1.406 4.152 3.276 4.152 5.25s-1.476 3.843-4.152 5.25c-2.657 1.396-6.387 2.264-10.603 2.264S7.928 22.707 5.27 21.31c-2.676-1.406-4.152-3.276-4.152-5.248z"/></g><defs><linearGradient id="mA" x1="2.992" y1="9.752" x2="29.195" y2="21.386" gradientUnits="userSpaceOnUse"><stop stop-color="#fff" stop-opacity=".2"/><stop offset="1" stop-color="#fff" stop-opacity="0"/></linearGradient><clipPath id="mB"><path transform="translate(.618 .037)" d="M0 0h30.5v32.05H0z"/></clipPath></defs></svg><view id="python" viewBox="133 33 32 33"/><svg width="32" height="33" viewBox="0 0 32 33" x="133" y="33" xmlns="http://www.w3.org/2000/svg"><g clip-path="url(#nA)"><path d="M7.577 18.554c0-1.898 1.47-3.443 3.277-3.443h10.13c.822 0 1.5-.702 1.5-1.565V4.72c0-2.6-2.005-4.695-4.47-4.695h-4.17c-2.464 0-4.47 2.106-4.47 4.695v2.567h6.555c.494 0 .894.42.894.94s-.4.94-.894.94H5.134c-2.464 0-4.47 2.106-4.47 4.695v4.382c0 2.6 2.005 4.695 4.47 4.695h2.443v-4.382zm6.257-13.772c-.494 0-.894-.42-.894-.94s.4-.94.894-.94.894.42.894.94-.4.94-.894.94zm12.872 4.382h-2.443v4.382c0 1.9-1.47 3.443-3.277 3.443h-10.13c-.82 0-1.5.702-1.5 1.565v8.827c0 2.6 2.005 4.695 4.47 4.695h4.17c2.464 0 4.47-2.106 4.47-4.695v-2.567H15.92c-.494 0-.894-.42-.894-.94s.4-.94.894-.94h10.786c2.464 0 4.47-2.106 4.47-4.695v-4.38c0-2.6-2.005-4.695-4.47-4.695zm-8.7 18.154c.494 0 .894.42.894.94s-.4.94-.894.94-.894-.42-.894-.94.4-.94.894-.94z"/></g><defs><clipPath id="nA"><path transform="translate(.665 .024)" d="M0 0h30.5v32.05H0z"/></clipPath></defs></svg><view id="react" viewBox="0 0 32 37"/><svg width="32" height="37" viewBox="0 0 32 37" xmlns="http://www.w3.org/2000/svg"><g clip-path="url(#oA)"><path d="M31.484 18.265c0-2.12-2.53-4.13-6.412-5.376.896-4.15.497-7.45-1.256-8.508-.404-.248-.877-.365-1.393-.365V5.47c.286 0 .516.06.7.17.846.5 1.213 2.447.927 4.94-.068.613-.18 1.26-.317 1.918a28.67 28.67 0 00-3.95-.71 31.54 31.54 0 00-2.587-3.262c2.027-1.977 3.93-3.06 5.224-3.06V4.008c-1.7 0-3.95 1.28-6.213 3.497-2.264-2.205-4.503-3.47-6.213-3.47V5.5c1.287 0 3.197 1.077 5.224 3.04-.87.96-1.74 2.05-2.568 3.256a27.833 27.833 0 00-3.955.718L8.38 10.6c-.292-2.492.068-4.43.908-4.946.187-.117.43-.17.715-.17V4.04c-.522 0-.995.117-1.405.365-1.748 1.057-2.14 4.352-1.238 8.5C3.492 14.147.973 16.15.973 18.265s2.53 4.13 6.412 5.376c-.896 4.15-.498 7.45 1.256 8.508.404.248.877.365 1.4.365 1.7 0 3.95-1.28 6.213-3.497 2.264 2.205 4.503 3.47 6.213 3.47.522 0 .995-.117 1.406-.365 1.748-1.057 2.14-4.352 1.238-8.5 3.856-1.246 6.374-3.256 6.374-5.37zm-8.097-4.352l-.84 2.577-.815-1.566-.895-1.527 2.55.515zm-2.848 6.95l-1.5 2.492-2.8.13c-.94 0-1.878-.046-2.8-.124l-1.505-2.48-1.294-2.597 1.287-2.603 1.5-2.492 2.8-.13 2.8.124 1.505 2.48 1.294 2.597-1.287 2.603zm2-.848l.858 2.597-2.562.522.895-1.546.8-1.572zm-6.306 6.962a26.853 26.853 0 01-1.73-2.088l1.7.046 1.73-.046-1.7 2.088zm-4.627-3.843l-2.55-.516.84-2.577.815 1.566.895 1.527zM16.2 9.554a26.666 26.666 0 011.73 2.088l-1.7-.046-1.73.046a27.84 27.84 0 011.7-2.088zm-4.602 3.843l-.896 1.546-.808 1.566-.858-2.597 2.562-.515zm-5.628 8.17c-2.202-.985-3.626-2.277-3.626-3.3s1.424-2.323 3.626-3.302c.535-.24 1.12-.457 1.723-.66a32.34 32.34 0 001.399 3.973 31.88 31.88 0 00-1.381 3.954l-1.74-.666zM9.325 30.9c-.846-.5-1.213-2.447-.927-4.94.068-.613.18-1.26.317-1.918a28.87 28.87 0 003.949.711c.84 1.207 1.7 2.303 2.587 3.262-2.027 1.977-3.93 3.06-5.224 3.06-.28-.007-.516-.065-.703-.176zm14.75-4.972c.292 2.492-.068 4.43-.908 4.946-.187.117-.43.17-.715.17-1.287 0-3.197-1.076-5.224-3.04a30.54 30.54 0 002.568-3.256 27.807 27.807 0 003.955-.718l.323 1.9zm2.394-4.352a18.55 18.55 0 01-1.723.659c-.355-1.28-.82-2.6-1.4-3.974a31.88 31.88 0 001.381-3.954l1.747.666c2.2.985 3.626 2.277 3.626 3.302-.006 1.024-1.43 2.323-3.632 3.3zm-10.247-.33c1.57 0 2.842-1.335 2.842-2.982s-1.272-2.982-2.842-2.982-2.842 1.335-2.842 2.982 1.272 2.982 2.842 2.982z"/></g><defs><clipPath id="oA"><path transform="translate(.973 .024)" d="M0 0h30.5v36.474H0z"/></clipPath></defs></svg><view id="scala" viewBox="0 103 20 33"/><svg width="20" height="33" viewBox="0 0 20 33" y="103" xmlns="http://www.w3.org/2000/svg"><g clip-path="url(#pA)"><path d="M.27 14.817v7.396c0-.616 18.776-1.85 18.776-4.93V9.886C19.047 12.968.27 14.2.27 14.817zm0-9.862v7.396c0-.616 18.776-1.85 18.776-4.93V.024C19.047 3.106.27 4.34.27 4.955zm0 19.725v7.397c0-.616 18.776-1.85 18.776-4.93V19.75C19.047 22.83.27 24.062.27 24.68z"/></g><defs><clipPath id="pA"><path transform="translate(.271 .024)" d="M0 0h18.776v32.05H0z"/></clipPath></defs></svg><view id="sql" viewBox="20 103 31 33"/><svg width="31" height="33" viewBox="0 0 31 33" x="20" y="103" xmlns="http://www.w3.org/2000/svg"><g clip-path="url(#qA)"><path d="M15.757 14.316c-1.367 0-2.156 1.408-2.156 3.15-.014 1.767.802 3.12 2.142 3.12 1.354 0 2.143-1.34 2.143-3.162 0-1.7-.763-3.107-2.13-3.107zm11.693-2.812h-.733V7.8c0-.023-.004-.046-.006-.07a.637.637 0 00-.142-.407L20.688.255a.64.64 0 00-.124-.109.59.59 0 00-.039-.024.61.61 0 00-.118-.052c-.01-.003-.02-.008-.032-.01a.57.57 0 00-.137-.018H5.78c-.66 0-1.196.564-1.196 1.257v10.207H3.85c-.944 0-1.7.804-1.7 1.797v9.342c0 1 .766 1.796 1.7 1.796h.732v6.395c0 .693.536 1.257 1.196 1.257H25.52c.66 0 1.196-.564 1.196-1.257V24.44h.733c.945 0 1.7-.805 1.7-1.796V13.3c0-.992-.765-1.797-1.7-1.797zM5.78 1.297h13.86v6.43c0 .347.268.628.598.628h5.285v3.15H5.78V1.297zm14.26 20.78l-.578 1.63a29.95 29.95 0 01-3.496-1.312 1.88 1.88 0 00-.617-.138c-1.998-.137-3.865-1.685-3.865-4.722 0-2.8 1.682-4.888 4.324-4.888 2.7 0 4.193 2.154 4.193 4.695 0 2.113-.933 3.603-2.103 4.156v.055c.683.207 1.445.373 2.142.524zm-15.588-.4l.408-1.74c.54.3 1.366.58 2.22.58.92 0 1.406-.4 1.406-1.007 0-.58-.42-.912-1.485-1.312-1.472-.54-2.432-1.395-2.432-2.748 0-1.588 1.262-2.803 3.352-2.803 1 0 1.735.222 2.26.47l-.446 1.7a4.04 4.04 0 00-1.853-.442c-.868 0-1.3.414-1.3.898 0 .593.5.856 1.643 1.312 1.564.608 2.3 1.463 2.3 2.775 0 1.56-1.144 2.886-3.575 2.886-1.012-.001-2-.277-2.5-.566zm21.07 8.818H5.78V24.44h19.742v6.054zm1.327-8.4h-5.534V12.8h2.012v7.54h3.522v1.767z"/></g><defs><clipPath id="qA"><path transform="translate(.396 .04)" d="M0 0h30.5v32.05H0z"/></clipPath></defs></svg><view id="swift" viewBox="133 66 32 33"/><svg width="32" height="33" viewBox="0 0 32 33" x="133" y="66" xmlns="http://www.w3.org/2000/svg"><g clip-path="url(#rA)"><path d="M28.38 21.766s4.35-10.332-9.063-19.735c0 0 5.492 7.125 2.666 15.086 0 0-9.855-7.203-14.812-12.37 0 0 6.195 9.19 8.42 11.063 0 0-3.697-1.973-12.265-9.487 0 0 9.828 13.22 14.462 15.98 0 0-7.012 4.94-17.274-2.03 0 0 5.398 9.804 16.786 9.804 5.12 0 6.62-2.7 9.157-2.7 2.624 0 4.205 2.7 4.205 2.7 1.53-3.88-2.28-8.31-2.28-8.31z"/></g><defs><clipPath id="rA"><path transform="translate(.51 .027)" d="M0 0h30.5v32.05H0z"/></clipPath></defs></svg></svg>