<svg xmlns="http://www.w3.org/2000/svg" width="36" height="33" fill="none" xmlns:v="https://vecta.io/nano"><g clip-path="url(#A)"><path d="M26.12 12.246l2.898-5.273c.163-.296.065-.67-.213-.843s-.64-.072-.8.224l-2.936 5.34c-2.24-1.075-4.76-1.674-7.472-1.674s-5.232.6-7.472 1.674L7.19 6.354a.57.57 0 0 0-.802-.224c-.28.172-.376.547-.213.843l2.898 5.273C4.077 15.09.693 20.403.134 26.623h34.93c-.56-6.22-3.943-11.532-8.944-14.377zM9.58 21.47c-.8 0-1.464-.69-1.464-1.538s.658-1.538 1.464-1.538 1.464.69 1.464 1.538-.654 1.538-1.464 1.538zm16.036 0c-.8 0-1.464-.69-1.464-1.538s.658-1.538 1.464-1.538 1.464.69 1.464 1.538-.654 1.538-1.464 1.538z" fill="#7c8b9c"/></g><defs><clipPath id="A"><path fill="#fff" transform="translate(.113 .037)" d="M0 0h34.954v32.05H0z"/></clipPath></defs></svg>