<svg xmlns="http://www.w3.org/2000/svg" width="29" height="33" fill="none" xmlns:v="https://vecta.io/nano"><g clip-path="url(#A)"><path d="M2.62 25.048l12.693 6.976 12.758-7.07L30.45 5.23 15.298.024.242 5.322l2.38 19.726z" fill="#7c8b9c"/><g fill="#fff"><path d="M19.03 16.956l-3.767 1.762h-3.97l-1.866 4.668-3.472.064 9.31-20.71 3.767 14.214zm-.364-.887l-3.378-6.688-2.77 6.572h2.746l3.403.115z"/><path d="M18.43 15.96H15.27l-.007 2.754 4.372.004 2.044 4.733 3.322.06-9.737-20.77.025 6.64 3.144 6.578z"/></g></g><defs><clipPath id="A"><path fill="#fff" transform="translate(.242 .024)" d="M0 0h28.696v32.05H0z"/></clipPath></defs></svg>