<svg xmlns="http://www.w3.org/2000/svg" width="31" height="33" fill="none" xmlns:v="https://vecta.io/nano"><g clip-path="url(#A)"><g fill="#7c8b9c"><path d="M28.62 23.835c.21-.383.342-.815.342-1.203V9.172c0-.388-.13-.82-.342-1.203l-13.088 7.933 13.088 7.933z"/><path d="M16.695 31.477l11.103-6.73c.32-.194.61-.53.82-.912l-13.088-7.933-13.088 7.933c.21.383.502.718.82.912l11.103 6.73c.64.388 1.686.388 2.326 0z"/><path d="M28.62 7.97c-.21-.383-.502-.718-.82-.912L16.695.328c-.64-.388-1.686-.388-2.326 0L3.265 7.058c-.64.388-1.163 1.34-1.163 2.115v13.46c0 .388.13.82.342 1.203L28.62 7.97z"/></g><g fill="#fff"><path d="M15.532 25.3c-4.937 0-8.953-4.216-8.953-9.4s4.016-9.4 8.953-9.4c3.185 0 6.156 1.8 7.753 4.696L19.4 13.554c-.8-1.45-2.285-2.35-3.88-2.35-2.468 0-4.476 2.108-4.476 4.7s2.008 4.7 4.476 4.7c1.593 0 3.08-.9 3.88-2.35l3.875 2.354c-1.597 2.897-4.568 4.697-7.753 4.697zm8.952-9.92H23.5v-1.044h-.995v1.044H21.5v1.044h.995v1.044h.995v-1.044h.995V15.38zm3.73 0h-.995v-1.044h-.995v1.044h-.995v1.044h.995v1.044h.995v-1.044h.995V15.38z"/></g></g><defs><clipPath id="A"><path fill="#fff" transform="translate(.195 .037)" d="M0 0h30.5v32.05H0z"/></clipPath></defs></svg>