<svg xmlns="http://www.w3.org/2000/svg" width="32" height="33" fill="none" xmlns:v="https://vecta.io/nano"><g clip-path="url(#A)"><path d="M29.458 9.512c0-.53-.107-1.008-.33-1.408-.215-.4-.538-.73-.968-.99L17.426.62C16.457.037 15.53.054 14.57.645L3.896 7.113c-.877.53-1.3 1.347-1.3 2.408v13.074c0 .522.108.982.314 1.382.215.41.546.756.985 1.026L14.57 31.47c.96.59 1.895.617 2.855.026l10.733-6.494a2.55 2.55 0 0 0 .985-1.026c.207-.4.314-.86.314-1.382V9.512z" fill="#7c8b9c"/><g fill="#fff"><path d="M19.892 18.336c-.76 1.417-2.21 2.382-3.873 2.382-1.655 0-3.095-.948-3.856-2.356-.372-.687-.588-1.47-.588-2.312 0-2.582 1.986-4.668 4.444-4.668 1.638 0 3.07.94 3.84 2.33l3.88-2.347c-1.547-2.8-4.427-4.686-7.73-4.686-4.932 0-8.92 4.2-8.92 9.37 0 1.695.43 3.295 1.183 4.668 1.54 2.808 4.435 4.703 7.745 4.703 3.318 0 6.215-1.904 7.754-4.73l-3.88-2.356zm4.907-4.503h-.885v4.494h.885v-4.494zm1.96 0h-.885v4.494h.885v-4.494z"/><path d="M27.48 14.59h-4.278v.93h4.278v-.93zm0 2.052h-4.278v.93h4.278v-.93z"/></g></g><defs><clipPath id="A"><path fill="#fff" transform="translate(.772 .037)" d="M0 0h30.5v32.05H0z"/></clipPath></defs></svg>