<svg xmlns="http://www.w3.org/2000/svg" width="32" height="33" fill="none" xmlns:v="https://vecta.io/nano"><g clip-path="url(#A)"><path d="M2.79.037c-.28 0-.49.24-.464.533L4.69 28.426c.025.293.266.598.537.677l10.032 2.926c.27.08.712.08.983 0l10.062-2.93c.27-.08.512-.383.537-.676L29.206.57c.025-.293-.184-.533-.464-.533H2.79zm21.383 6.39l-.228 2.672-.04.4H11.498c-.28 0-.49.24-.464.533l.22 2.566c.025.293.275.533.555.533h11.34c.25 0 .436.214.413.476L22.7 23.72c-.014.165-.246.364-.517.442l-6.427 1.87c-.004.001-.23-.063-.5-.14l-5.934-1.73c-.27-.08-.512-.383-.537-.677l-.382-4.504c-.025-.293.184-.533.465-.533h2.37c.28 0 .53.24.555.533l.15 1.763c.025.293.267.596.537.673l3.27.927c.001 0 .224-.063.494-.14l2.78-.79a.82.82 0 0 0 .538-.673l.3-3.532c.025-.293-.184-.533-.464-.533H8.72c-.28 0-.53-.24-.555-.534l-.826-9.72c-.022-.262.19-.476.47-.476h15.894c.28 0 .492.214.47.476z" fill="#7c8b9c"/></g><defs><clipPath id="A"><path fill="#fff" transform="translate(.51 .037)" d="M0 0h30.5v32.05H0z"/></clipPath></defs></svg>