<svg xmlns="http://www.w3.org/2000/svg" width="32" height="33" fill="none" xmlns:v="https://vecta.io/nano"><g clip-path="url(#A)" fill="#7c8b9c"><path d="M11.6 32.088c-4.54-.028-8.297-9.765-8.297-14.724 0-8.1 5.785-9.874 8.014-9.874 1.005 0 2.077.414 3.024.78.662.256 1.346.52 1.727.52.228 0 .765-.225 1.24-.422 1-.423 2.27-.948 3.733-.948 1.102 0 4.42.252 6.412 3.397l.467.737-.672.533c-.96.76-2.712 2.15-2.712 4.9 0 3.257 1.984 4.5 2.937 5.112.42.266.856.54.856 1.14 0 .4-2.975 8.8-7.295 8.8-1.057 0-1.804-.334-2.463-.628-.667-.298-1.242-.555-2.193-.555-.482 0-1.1.24-1.736.493-.882.346-1.88.738-3 .738h-.03zM21.487.037C21.6 4.3 18.697 7.255 15.8 7.07c-.477-3.4 2.897-7.033 5.687-7.033z"/></g><defs><clipPath id="A"><path fill="#fff" transform="translate(.55 .037)" d="M0 0h30.5v32.05H0z"/></clipPath></defs></svg>