<svg xmlns="http://www.w3.org/2000/svg" width="31" height="33" fill="none" xmlns:v="https://vecta.io/nano"><g clip-path="url(#A)"><path d="M28.602.037H1.99C.914.037.04.953.04 2.083v27.96c0 1.128.873 2.046 1.948 2.046h26.613c1.075 0 1.948-.917 1.948-2.046V2.082C30.55.953 29.677.037 28.602.037zM13.894 18.102c0 .89-.08 1.65-.24 2.276s-.405 1.13-.73 1.523c-.326.388-.733.675-1.22.853s-1.052.27-1.697.27c-.567 0-1.08-.094-1.54-.28a3.21 3.21 0 0 1-1.171-.803c-.323-.35-.57-.773-.745-1.27S6.3 19.617 6.3 19.01v-.4h1.828c0 1.787.63 2.682 1.89 2.682a2.8 2.8 0 0 0 .862-.12 1.32 1.32 0 0 0 .641-.46c.175-.224.307-.535.398-.936s.137-.925.137-1.572v-10h1.85l-.003 9.898zm10.2 2.902a3.2 3.2 0 0 1-.802 1.06c-.347.302-.77.536-1.267.708s-1.055.252-1.67.252c-2.73 0-4.17-1.132-4.318-3.398h1.796c.008 1.28.843 1.92 2.502 1.92.368 0 .698-.04.98-.13s.52-.202.708-.352a1.51 1.51 0 0 0 .431-.532 1.52 1.52 0 0 0 .148-.664c0-.254-.038-.454-.11-.607s-.22-.29-.433-.4-.51-.234-.886-.346l-1.482-.427-1.538-.465c-.433-.152-.786-.34-1.062-.56s-.483-.493-.616-.816-.2-.733-.2-1.226c0-.434.087-.837.262-1.208s.425-.693.752-.966.72-.485 1.18-.64.98-.23 1.546-.23c2.64 0 3.983.985 4.024 2.958h-1.766c-.063-.985-.77-1.48-2.122-1.48a3.53 3.53 0 0 0-.835.094c-.257.062-.477.152-.667.27a1.33 1.33 0 0 0-.442.436c-.104.173-.157.374-.157.6 0 .206.025.375.074.507s.166.258.352.37.462.226.824.337l1.493.41 1.588.48c.447.166.82.367 1.118.603a2.15 2.15 0 0 1 .662.86c.142.338.215.762.215 1.27 0 .475-.096.916-.284 1.32z" fill="#7c8b9c"/></g><defs><clipPath id="A"><path fill="#fff" transform="translate(.041 .037)" d="M0 0h30.5v32.05H0z"/></clipPath></defs></svg>