<svg xmlns="http://www.w3.org/2000/svg" width="31" height="33" fill="none" xmlns:v="https://vecta.io/nano"><g clip-path="url(#A)" fill="#7c8b9c"><path d="M15.145 5.963c-1.4 1.042-3.008 2.222-3.864 4.175-1.487 3.408 3.043 7.125 3.236 7.28.045.037.1.055.153.055a.25.25 0 0 0 .16-.06c.1-.08.115-.213.06-.323-.016-.033-1.642-3.35-1.582-5.73.02-.83 1.126-1.77 2.295-2.765 1.07-.912 2.285-1.946 2.995-3.155 1.56-2.662-.174-5.28-.192-5.305-.07-.102-.196-.138-.305-.088s-.17.174-.144.295c.003.017.34 1.748-.597 3.53-.386.737-1.235 1.364-2.218 2.1zm5.94 1.173c.1-.08.13-.222.07-.337s-.2-.165-.308-.12c-.24.096-5.865 2.373-5.865 5.126 0 1.897.77 2.9 1.335 3.63.22.287.412.535.475.747.177.6-.242 1.712-.42 2.085-.05.107-.026.237.06.316.047.042.105.064.163.064.05 0 .1-.016.143-.047.097-.07 2.364-1.755 1.957-3.783-.15-.77-.512-1.335-.83-1.832-.493-.77-.85-1.327-.3-2.354.633-1.198 3.5-3.474 3.53-3.497zM6.442 18.694a.97.97 0 0 0 .132.87c.6.9 2.77 1.38 6.082 1.38l1.4-.027c5.296-.2 7.26-1.932 7.34-2.006.088-.08.112-.214.057-.322s-.173-.162-.286-.13c-1.865.535-5.348.725-7.764.725-2.703 0-4.08-.204-4.417-.355.173-.25 1.24-.695 2.56-.968.126-.026.213-.15.2-.283s-.12-.237-.25-.237c-.775 0-4.66.065-5.067 1.355zm17.72-1.784c-1.092 0-2.128.575-2.172.6a.27.27 0 0 0-.124.295c.028.115.128.2.242.2.023 0 2.33.02 2.54 1.404.185 1.194-2.183 3.13-3.1 3.775a.27.27 0 0 0-.093.321.25.25 0 0 0 .23.161.23.23 0 0 0 .052-.006c.22-.05 5.387-1.246 4.84-4.406-.333-1.937-1.492-2.343-2.405-2.343z"/><path d="M20.62 22.795a.27.27 0 0 0-.102-.263l-1.24-.912a.24.24 0 0 0-.208-.039c-.013.004-1.3.36-3.2.58-.747.088-1.583.134-2.418.134-1.88 0-3.1-.232-3.3-.402-.024-.048-.016-.07-.012-.082.032-.095.207-.208.32-.253.124-.048.2-.2.153-.323s-.17-.2-.298-.18c-1.243.315-1.85.756-1.806 1.3.08.982 2.244 1.486 4.074 1.62l.846.03c3.044 0 6.946-1.003 6.985-1.013.095-.025.168-.105.186-.207zm-9.34 2.108a.27.27 0 0 0 .102-.298c-.033-.112-.133-.186-.245-.184-.167.005-1.63.074-1.732 1.053a1.05 1.05 0 0 0 .237.794c.525.654 1.943 1.043 4.335 1.2l.854.027c3.04 0 5.088-1 5.173-1.043s.138-.127.143-.223-.04-.188-.12-.238l-1.566-1.004a.24.24 0 0 0-.18-.033l-2.504.433c-.284.04-.64.06-1.057.06-1.5 0-3.166-.257-3.485-.426-.005-.032.001-.072.046-.106zm2.133 5.597c6.963-.006 10.7-1.307 11.42-2.126.255-.3.282-.564.26-.743-.053-.44-.436-.7-.48-.74-.105-.07-.245-.052-.326.047a.27.27 0 0 0-.002.342c.044.06.07.16-.06.294-.288.282-3.2 1.14-8.024 1.397-.662.036-1.356.055-2.064.055-4.328 0-7.495-.623-7.9-.986.16-.242 1.28-.628 2.472-.847.134-.025.225-.157.204-.3a.25.25 0 0 0-.28-.22c-.034.005-.148.012-.28.02-1.966.126-4.237.407-4.356 1.47-.036.324.056.62.273.875.53.627 2.057 1.46 9.15 1.46zm12.79-1.894a.24.24 0 0 0-.288.06c-.01.01-1.057 1.162-4.205 1.837-1.205.254-3.467.382-6.723.382-3.262 0-6.366-.135-6.397-.136-.13-.007-.24.092-.258.226s.065.26.2.292c.032.008 3.285.8 7.734.8 2.133 0 4.2-.182 6.17-.54 3.656-.673 3.912-2.578 3.922-2.66.013-.113-.045-.22-.143-.27z"/></g><defs><clipPath id="A"><path fill="#fff" transform="translate(.041 .024)" d="M0 0h30.5v32.05H0z"/></clipPath></defs></svg>