<svg xmlns="http://www.w3.org/2000/svg" width="28" height="33" fill="none" xmlns:v="https://vecta.io/nano"><g clip-path="url(#A)"><path d="M13.594 32.03c-.42 0-.81-.117-1.175-.323l-3.72-2.322c-.56-.323-.28-.44-.112-.5.755-.265.895-.323 1.68-.794.084-.06.196-.03.28.03l2.854 1.793c.112.06.252.06.336 0l11.163-6.79c.112-.06.168-.176.168-.323V9.25c0-.147-.056-.265-.168-.323l-11.163-6.76c-.112-.06-.252-.06-.336 0L2.235 8.928c-.112.06-.168.206-.168.323V22.8c0 .118.056.265.168.323l3.05 1.852c1.65.882 2.686-.147 2.686-1.176V10.427c0-.176.14-.353.336-.353h1.427a.35.35 0 0 1 .336.353V23.8c0 2.322-1.203 3.674-3.3 3.674-.643 0-1.147 0-2.574-.735l-2.938-1.763C.53 24.534.08 23.71.08 22.83V9.28c0-.882.448-1.705 1.175-2.146L12.42.345c.7-.41 1.65-.41 2.35 0l11.163 6.79c.727.44 1.175 1.264 1.175 2.146v13.55c0 .882-.448 1.705-1.175 2.146l-11.163 6.79c-.364.176-.783.265-1.175.265zm3.44-9.317c-4.896 0-5.903-2.35-5.903-4.35 0-.176.14-.353.336-.353h1.455c.168 0 .308.118.308.294.224 1.558.867 2.322 3.833 2.322 2.35 0 3.357-.558 3.357-1.88 0-.764-.28-1.323-3.945-1.705-3.05-.323-4.952-1.03-4.952-3.586 0-2.38 1.902-3.79 5.092-3.79 3.58 0 5.344 1.293 5.568 4.115a.49.49 0 0 1-.084.264c-.056.06-.14.118-.224.118H20.42c-.14 0-.28-.118-.308-.265-.336-1.617-1.203-2.145-3.497-2.145-2.574 0-2.882.94-2.882 1.646 0 .852.364 1.117 3.833 1.587 3.44.47 5.064 1.146 5.064 3.674-.028 2.586-2.042 4.056-5.596 4.056z" fill="#7c8b9c"/></g><defs><clipPath id="A"><path fill="#fff" transform="translate(.081 .037)" d="M0 0h27.026v32.05H0z"/></clipPath></defs></svg>