<svg xmlns="http://www.w3.org/2000/svg" width="33" height="35" fill="none" xmlns:v="https://vecta.io/nano"><path d="M16.337 33.692c8.776 0 15.89-7.474 15.89-16.693S25.114.305 16.337.305.446 7.78.446 17s7.115 16.693 15.89 16.693z" fill="#7c8b9c"/><path fill-rule="evenodd" d="M13.683 33.945C10.16 33.3 7.138 31.6 4.64 28.89c-2.124-2.306-3.585-5.2-4.25-8.447-.287-1.398-.287-5.397 0-6.795a19.16 19.16 0 0 1 2.514-6.254c.788-1.254 3.096-3.68 4.3-4.507 1.803-1.25 3.872-2.168 5.955-2.64 1.33-.302 5.138-.302 6.47 0a15.94 15.94 0 0 1 8.267 4.718c2.326 2.444 3.79 5.275 4.492 8.683.287 1.398.287 5.397 0 6.795-.7 3.408-2.165 6.24-4.492 8.683-2.3 2.405-4.95 3.94-8.142 4.696-1.13.268-4.872.345-6.06.124zm2.93-3.398c0-1.116-.015-1.196-.23-1.196s-.23.077-.22 1.037c.01 1.134.086 1.483.306 1.406.102-.036.143-.397.143-1.247zm-1.71.384c.302-.318.4-.5.4-.853 0-.35-.04-.435-.193-.404-.106.02-.233.202-.283.4s-.253.507-.452.683c-.358.32-.372.583-.03.583.097 0 .353-.185.568-.4zm3.785.28c.042-.072-.086-.276-.285-.452s-.402-.485-.452-.683-.177-.38-.283-.4c-.152-.03-.193.054-.193.404 0 .694.948 1.58 1.212 1.133zm-5.232-2.167c0-.07-.16-.22-.357-.332-1.28-.737-2.782-1.91-3.617-2.823-1.63-1.784-2.363-3.562-2.38-5.767-.012-1.474.17-2.243.852-3.62.66-1.33 1.426-2.336 3.533-4.635 2.352-2.568 2.894-3.245 3.303-4.132.3-.63.33-.86.37-2.19.05-1.654-.046-2.795-.235-2.795-.086 0-.102.43-.053 1.393.157 3.084-.388 4.04-3.772 6.62-2.33 1.776-3.4 2.74-4.208 3.794-1.144 1.493-1.65 2.786-1.777 4.537-.306 4.222 2.24 7.882 6.735 9.68.992.396 1.608.5 1.608.272zm7.774-.342c1.545-.676 2.72-1.493 3.827-2.662 1.688-1.783 2.39-3.45 2.497-5.917.092-2.164-.355-3.595-1.63-5.217-.874-1.11-1.814-1.905-4.35-3.675-3.412-2.38-4.213-3.33-4.213-4.987 0-.44.076-1.066.168-1.388.158-.55.153-.93-.005-.495-.15.41-.493.222-.678-.375l-.178-.573.067.543c.24 1.926.268 2.734.163 4.42-.143 2.28-.41 3.838-1.142 6.672-.727 2.812-.858 3.832-.768 5.98.076 1.816.318 3.174.88 4.947.522 1.645.62 1.77 1.58 2.028.528.142 1.028.38 1.426.683.373.283.748.468.957.472.2.004.82-.2 1.4-.455h0zm-.347-.818c-.143-.15-.077-.28.484-.93 1.765-2.048 2.557-4.162 2.58-6.893.015-1.86-.376-3.093-1.57-4.947-.54-.838-2.44-2.93-3.36-3.696-.675-.563-1.367-1.522-1.49-2.065-.125-.55.226-.404.632.262.2.326.63.806.96 1.065l2.158 1.69c2.955 2.307 4.27 4.274 4.565 6.83.17 1.48-.1 3.007-.788 4.425-.712 1.47-2 3.072-3.122 3.852-.684.48-.9.563-1.05.406zm-5.784.156c.033-.09-.262-.675-.657-1.297-1.045-1.647-1.5-2.556-1.925-3.846-.358-1.088-.377-1.236-.38-2.896-.004-2.5.255-3.306 2.15-6.612 1.787-3.118 2.03-4.325 1.828-9.122l-.182-3.18c-.19-.198-.23.31-.16 2.04.138 3.443-.073 5.36-.764 6.934-.47 1.07-.997 1.883-2.413 3.725-1.972 2.564-2.53 3.924-2.518 6.153.007 1.528.204 2.467.792 3.774.636 1.415 1.807 2.843 3.274 3.994.676.53.86.593.955.33z" fill="#fff"/></svg>