<svg xmlns="http://www.w3.org/2000/svg" width="32" height="33" fill="none" xmlns:v="https://vecta.io/nano"><g clip-path="url(#B)"><path d="M15.873 8.05C7.32 8.05.618 11.57.618 16.063s6.7 8.013 15.255 8.013 15.255-3.52 15.255-8.013-6.7-8.013-15.255-8.013z" fill="#fff"/><path d="M15.873 22.74c-3.655 0-7.028-.715-9.55-1.857l.512-2.15h2.23c1.68 0 3.14-1.197 3.548-2.9l.11-.47a2.74 2.74 0 0 0-.459-2.276c-.482-.65-1.207-1.02-1.99-1.02H7.6c-.292 0-.546.21-.616.506l-1.84 7.733c-2.028-1.16-3.264-2.642-3.264-4.232 0-3.62 6.404-6.677 13.984-6.677s13.984 3.058 13.984 6.677-6.404 6.677-13.984 6.677z" fill="#7c8b9c"/><path opacity=".2" d="M2.525 16.73c0-3.62 6.404-6.677 13.984-6.677 5.308 0 10.03 1.502 12.39 3.644-2.05-2.49-7.18-4.312-13.025-4.312-7.58 0-13.984 3.058-13.984 6.677 0 1.066.566 2.08 1.542 2.984-.583-.725-.907-1.506-.907-2.316z" fill="#fff"/><g fill="#7c8b9c"><path d="M7.153 17.398l.953-4.006h2.168c.39 0 .75.184.988.507a1.36 1.36 0 0 1 .228 1.131l-.11.47c-.266 1.118-1.218 1.898-2.315 1.898H7.153z"/></g><g fill="#fff"><path d="M24.894 12.056H22.23c-.292 0-.546.2-.616.506l-1.275 5.355-.632 2.658a.67.67 0 0 0 .462.809c.052.014.104.02.155.02.285 0 .544-.202.616-.506l.516-2.165h2.23c1.68 0 3.14-1.197 3.548-2.9l.1-.47a2.74 2.74 0 0 0-.459-2.277c-.482-.65-1.207-1.02-2-1.02zM26.1 15.03l-.1.47c-.266 1.118-1.218 1.898-2.315 1.898h-1.912l.953-4.006h2.168a1.22 1.22 0 0 1 .988.507 1.36 1.36 0 0 1 .228 1.131zm-6.8-2.16a2.06 2.06 0 0 0-1.633-.815h-2.015l.2-1.216a.67.67 0 0 0-.51-.776c-.344-.076-.677.174-.74.537l-1.27 7.345a.67.67 0 0 0 .51.776.55.55 0 0 0 .114.01c.302 0 .57-.226.624-.548l.83-4.793h2.246c.252 0 .487.117.646.323a.91.91 0 0 1 .17.73l-.7 3.485c-.07.36.15.714.493.8a.58.58 0 0 0 .13.014c.295 0 .56-.216.622-.532l.7-3.485a2.29 2.29 0 0 0-.428-1.845z"/></g><path d="M1.118 16.063c0-1.973 1.476-3.843 4.152-5.25C7.928 9.418 11.658 8.55 15.873 8.55s7.945.868 10.603 2.264c2.676 1.406 4.152 3.276 4.152 5.25s-1.476 3.843-4.152 5.25c-2.657 1.396-6.387 2.264-10.603 2.264S7.928 22.707 5.27 21.31c-2.676-1.406-4.152-3.276-4.152-5.248z" fill="url(#A)" stroke="#7c8b9c"/></g><defs><linearGradient id="A" x1="2.992" y1="9.752" x2="29.195" y2="21.386" gradientUnits="userSpaceOnUse"><stop stop-color="#fff" stop-opacity=".2"/><stop offset="1" stop-color="#fff" stop-opacity="0"/></linearGradient><clipPath id="B"><path fill="#fff" transform="translate(.618 .037)" d="M0 0h30.5v32.05H0z"/></clipPath></defs></svg>