<svg xmlns="http://www.w3.org/2000/svg" width="32" height="33" fill="none" xmlns:v="https://vecta.io/nano"><g clip-path="url(#A)" fill="#7c8b9c"><path d="M7.577 18.554c0-1.898 1.47-3.443 3.277-3.443h10.13c.822 0 1.5-.702 1.5-1.565V4.72c0-2.6-2.005-4.695-4.47-4.695h-4.17c-2.464 0-4.47 2.106-4.47 4.695v2.567h6.555c.494 0 .894.42.894.94s-.4.94-.894.94H5.134c-2.464 0-4.47 2.106-4.47 4.695v4.382c0 2.6 2.005 4.695 4.47 4.695h2.443v-4.382zm6.257-13.772c-.494 0-.894-.42-.894-.94s.4-.94.894-.94.894.42.894.94-.4.94-.894.94zm12.872 4.382h-2.443v4.382c0 1.9-1.47 3.443-3.277 3.443h-10.13c-.82 0-1.5.702-1.5 1.565v8.827c0 2.6 2.005 4.695 4.47 4.695h4.17c2.464 0 4.47-2.106 4.47-4.695v-2.567H15.92c-.494 0-.894-.42-.894-.94s.4-.94.894-.94h10.786c2.464 0 4.47-2.106 4.47-4.695v-4.38c0-2.6-2.005-4.695-4.47-4.695zm-8.7 18.154c.494 0 .894.42.894.94s-.4.94-.894.94-.894-.42-.894-.94.4-.94.894-.94z"/></g><defs><clipPath id="A"><path fill="#fff" transform="translate(.665 .024)" d="M0 0h30.5v32.05H0z"/></clipPath></defs></svg>