<svg xmlns="http://www.w3.org/2000/svg" width="32" height="37" fill="none" xmlns:v="https://vecta.io/nano"><g clip-path="url(#A)" fill="#7c8b9c"><path d="M31.484 18.265c0-2.12-2.53-4.13-6.412-5.376.896-4.15.497-7.45-1.256-8.508-.404-.248-.877-.365-1.393-.365V5.47c.286 0 .516.06.7.17.846.5 1.213 2.447.927 4.94-.068.613-.18 1.26-.317 1.918a28.67 28.67 0 0 0-3.95-.71 31.54 31.54 0 0 0-2.587-3.262c2.027-1.977 3.93-3.06 5.224-3.06V4.008c-1.7 0-3.95 1.28-6.213 3.497-2.264-2.205-4.503-3.47-6.213-3.47V5.5c1.287 0 3.197 1.077 5.224 3.04-.87.96-1.74 2.05-2.568 3.256-1.405.157-2.736.398-3.955.718L8.38 10.6c-.292-2.492.068-4.43.908-4.946.187-.117.43-.17.715-.17V4.04c-.522 0-.995.117-1.405.365-1.748 1.057-2.14 4.352-1.238 8.5C3.492 14.147.973 16.15.973 18.265s2.53 4.13 6.412 5.376c-.896 4.15-.498 7.45 1.256 8.508.404.248.877.365 1.4.365 1.7 0 3.95-1.28 6.213-3.497 2.264 2.205 4.503 3.47 6.213 3.47.522 0 .995-.117 1.406-.365 1.748-1.057 2.14-4.352 1.238-8.5 3.856-1.246 6.374-3.256 6.374-5.37zm-8.097-4.352l-.84 2.577-.815-1.566-.895-1.527 2.55.515zm-2.848 6.95l-1.5 2.492-2.8.13c-.94 0-1.878-.046-2.8-.124l-1.505-2.48-1.294-2.597 1.287-2.603 1.5-2.492 2.8-.13 2.8.124 1.505 2.48 1.294 2.597-1.287 2.603zm2-.848l.858 2.597-2.562.522.895-1.546.8-1.572zm-6.306 6.962c-.578-.626-1.157-1.325-1.73-2.088l1.7.046 1.73-.046-1.7 2.088zm-4.627-3.843l-2.55-.516.84-2.577.815 1.566.895 1.527zM16.2 9.554c.578.626 1.157 1.324 1.73 2.088l-1.7-.046-1.73.046a27.84 27.84 0 0 1 1.7-2.088zm-4.602 3.843l-.896 1.546-.808 1.566-.858-2.597 2.562-.515zm-5.628 8.17c-2.202-.985-3.626-2.277-3.626-3.3s1.424-2.323 3.626-3.302c.535-.24 1.12-.457 1.723-.66a32.34 32.34 0 0 0 1.399 3.973 31.88 31.88 0 0 0-1.381 3.954l-1.74-.666zM9.325 30.9c-.846-.5-1.213-2.447-.927-4.94.068-.613.18-1.26.317-1.918a28.87 28.87 0 0 0 3.949.711c.84 1.207 1.7 2.303 2.587 3.262-2.027 1.977-3.93 3.06-5.224 3.06-.28-.007-.516-.065-.703-.176zm14.75-4.972c.292 2.492-.068 4.43-.908 4.946-.187.117-.43.17-.715.17-1.287 0-3.197-1.076-5.224-3.04a30.54 30.54 0 0 0 2.568-3.256c1.406-.157 2.736-.398 3.955-.718l.323 1.9zm2.394-4.352a18.55 18.55 0 0 1-1.723.659c-.355-1.28-.82-2.6-1.4-3.974a31.88 31.88 0 0 0 1.381-3.954l1.747.666c2.2.985 3.626 2.277 3.626 3.302-.006 1.024-1.43 2.323-3.632 3.3zm-10.247-.33c1.57 0 2.842-1.335 2.842-2.982s-1.272-2.982-2.842-2.982-2.842 1.335-2.842 2.982 1.272 2.982 2.842 2.982z"/></g><defs><clipPath id="A"><path fill="#fff" transform="translate(.973 .024)" d="M0 0h30.5v36.474H0z"/></clipPath></defs></svg>