<svg xmlns="http://www.w3.org/2000/svg" width="31" height="33" fill="none" xmlns:v="https://vecta.io/nano"><path d="M21.54 19.015L9.317 27.29l18.468 2.65-6.245-10.924zM29.533 6.84l-1.637 2.582-5.612 8.874c-.104.165-.24.296-.093.55l5.395 9.416c.283.496.57 1 .937 1.466l1.09-22.862-.08-.025zm-24.66 9.77c.085.084.296.133.393.082l5.172-2.738c.552-.315.977-.88 1.454-1.34l4.725-4.564c.097-.094.2-.184.268-.302l1.696-3.527-1.994-.777c-.09-.033-.23.032-.327.09L11.71 6.25c-.738.488-1.34 1.206-1.993 1.833l-3.143 3.05c-.276.273-.527.584-.74.912l-2.12 3.32 1.16 1.246zm6.333-1.485L8.602 26.684l12.236-8.282-9.632-3.275zm6.87-6.424l3.53 9.018 6.87-10.843-10.4 1.825zm-6.724 5.64l9.44 3.22L17.3 8.63l-5.948 5.714zM5.004 18.84L1.7 27.138l6.292-.195-2.988-8.1zm3.063 6.177L8.146 25l2.293-10.007L5.39 17.75l2.677 7.268zM27.205 6.342L24.2 5.504l-4.335-1.196c-.18-.05-.31-.083-.417.145l-1.555 3.283c-.016.034-.013.078-.025.163l9.345-1.488.002-.07zm-5.83-2.5l8.2 2.38-1.353-4.05-6.824 1.6-.012.08zm2.48 26.222l-6.72-.963-8.374-1.18c-1.014-.123-2.056-.01-3.084.01l-2.535.077c-.087.003-.174.02-.26.12l20.958 2.036.015-.098zm-22.017-5.46l2.7-6.583c.09-.22.084-.37-.093-.546L3.303 16.24l-1.65 8.548.06.03c.042-.07.092-.137.123-.213zm17.744-21.34l4.6-1.092c.1-.023.196-.058.293-.087l-.015-.08-6.58.93c.618.284 1.094.496 1.71.328z" fill="#7c8b9c"/></svg>