<svg xmlns="http://www.w3.org/2000/svg" width="31" height="33" fill="none" xmlns:v="https://vecta.io/nano"><g clip-path="url(#A)" fill="#7c8b9c"><path d="M15.757 14.316c-1.367 0-2.156 1.408-2.156 3.15-.014 1.767.802 3.12 2.142 3.12 1.354 0 2.143-1.34 2.143-3.162 0-1.7-.763-3.107-2.13-3.107zm11.693-2.812h-.733V7.8c0-.023-.004-.046-.006-.07-.001-.147-.046-.292-.142-.407L20.688.255a.64.64 0 0 0-.124-.109.59.59 0 0 0-.039-.024.61.61 0 0 0-.118-.052c-.01-.003-.02-.008-.032-.01a.57.57 0 0 0-.137-.018H5.78c-.66 0-1.196.564-1.196 1.257v10.207H3.85c-.944 0-1.7.804-1.7 1.797v9.342c0 1 .766 1.796 1.7 1.796h.732v6.395c0 .693.536 1.257 1.196 1.257H25.52c.66 0 1.196-.564 1.196-1.257V24.44h.733c.945 0 1.7-.805 1.7-1.796V13.3c0-.992-.765-1.797-1.7-1.797zM5.78 1.297h13.86v6.43c0 .347.268.628.598.628h5.285v3.15H5.78V1.297zm14.26 20.78l-.578 1.63a29.95 29.95 0 0 1-3.496-1.312 1.88 1.88 0 0 0-.617-.138c-1.998-.137-3.865-1.685-3.865-4.722 0-2.8 1.682-4.888 4.324-4.888 2.7 0 4.193 2.154 4.193 4.695 0 2.113-.933 3.603-2.103 4.156v.055c.683.207 1.445.373 2.142.524zm-15.588-.4l.408-1.74c.54.3 1.366.58 2.22.58.92 0 1.406-.4 1.406-1.007 0-.58-.42-.912-1.485-1.312-1.472-.54-2.432-1.395-2.432-2.748 0-1.588 1.262-2.803 3.352-2.803 1 0 1.735.222 2.26.47l-.446 1.7a4.04 4.04 0 0 0-1.853-.442c-.868 0-1.3.414-1.3.898 0 .593.5.856 1.643 1.312 1.564.608 2.3 1.463 2.3 2.775 0 1.56-1.144 2.886-3.575 2.886-1.012-.001-2-.277-2.5-.566zm21.07 8.818H5.78V24.44h19.742v6.054zm1.327-8.4h-5.534V12.8h2.012v7.54h3.522v1.767z"/></g><defs><clipPath id="A"><path fill="#fff" transform="translate(.396 .04)" d="M0 0h30.5v32.05H0z"/></clipPath></defs></svg>