<svg xmlns="http://www.w3.org/2000/svg" width="32" height="33" fill="none" xmlns:v="https://vecta.io/nano"><g clip-path="url(#A)"><path d="M28.38 21.766s4.35-10.332-9.063-19.735c0 0 5.492 7.125 2.666 15.086 0 0-9.855-7.203-14.812-12.37 0 0 6.195 9.19 8.42 11.063 0 0-3.697-1.973-12.265-9.487 0 0 9.828 13.22 14.462 15.98 0 0-7.012 4.94-17.274-2.03 0 0 5.398 9.804 16.786 9.804 5.12 0 6.62-2.7 9.157-2.7 2.624 0 4.205 2.7 4.205 2.7 1.53-3.88-2.28-8.31-2.28-8.31z" fill="#7c8b9c"/></g><defs><clipPath id="A"><path fill="#fff" transform="translate(.51 .027)" d="M0 0h30.5v32.05H0z"/></clipPath></defs></svg>