<svg xmlns="http://www.w3.org/2000/svg" width="32" height="33" fill="none" xmlns:v="https://vecta.io/nano"><g clip-path="url(#A)" fill="#7c8b9c"><path d="M.82 16.05c0 6.34 3.5 11.824 8.598 14.42L2.14 9.53a16.62 16.62 0 0 0-1.32 6.52zm15.522 1.4l-4.58 13.97a14.65 14.65 0 0 0 4.31.653 14.61 14.61 0 0 0 5.067-.908 1.8 1.8 0 0 1-.109-.222L16.342 17.45zm10.03-2.2c0-1.98-.68-3.35-1.258-4.417-.773-1.32-1.498-2.438-1.498-3.76 0-1.47 1.063-2.842 2.562-2.842.07 0 .133.01.197.013-2.712-2.6-6.33-4.208-10.3-4.208-5.33 0-9.85 2.826-12.605 7.003.358.014 4.907.034 4.907.034.822-.048.92 1.22.1 1.322 0 0-.827.1-1.747.152l5.555 17.355 3.338-10.515-2.376-6.84c-.822-.05-1.6-.072-1.6-.072-.822-.05-.726-1.242.095-1.242h8.085c.822 0 .918 1.14.096 1.242l-1.745.112L23.7 25.78l1.52-5.35c.774-2.082 1.162-3.818 1.162-5.2zm3.088-6.88a12.93 12.93 0 0 1 .103 1.649c0 1.625-.3 3.452-1.16 5.738l-4.66 14.15c4.536-2.777 7.586-7.938 7.586-13.85a16.57 16.57 0 0 0-1.87-7.688z"/></g><defs><clipPath id="A"><path fill="#fff" transform="translate(.819 .024)" d="M0 0h30.5v32.05H0z"/></clipPath></defs></svg>