<svg width="32" height="33" viewBox="0 0 32 33" fill="none" xmlns="http://www.w3.org/2000/svg">
<g clip-path="url(#clip0)">
<path d="M11.5898 32.0882C7.04895 32.0607 3.29285 22.3231 3.29285 17.364C3.29285 9.26328 9.07759 7.48982 11.307 7.48982C12.3117 7.48982 13.3845 7.90429 14.3307 8.27107C14.9924 8.52691 15.6768 8.79102 16.0574 8.79102C16.2852 8.79102 16.822 8.56635 17.296 8.36923C18.3068 7.94649 19.5647 7.42108 21.0294 7.42108C21.032 7.42108 21.0356 7.42108 21.0381 7.42108C22.1318 7.42108 25.448 7.67324 27.4418 10.8185L27.9088 11.5558L27.2367 12.0886C26.2765 12.8496 24.5245 14.238 24.5245 16.9881C24.5245 20.2452 26.5086 21.4979 27.4618 22.1003C27.8826 22.3663 28.3182 22.6405 28.3182 23.2402C28.3182 23.6317 25.3433 32.0396 21.0233 32.0396C19.9662 32.0396 19.219 31.7058 18.5599 31.4115C17.893 31.1135 17.3178 30.8567 16.3672 30.8567C15.8853 30.8567 15.276 31.0961 14.6309 31.3501C13.7494 31.6957 12.7516 32.0882 11.6195 32.0882H11.5898Z" fill="#7C8B9C"/>
<path d="M21.4871 0.0368881C21.5996 4.29846 18.6984 7.25495 15.8006 7.06952C15.3231 3.66864 18.698 0.0368881 21.4871 0.0368881Z" fill="#7C8B9C"/>
</g>
<defs>
<clipPath id="clip0">
<rect width="30.5103" height="32.0513" fill="white" transform="translate(0.550354 0.0368881)"/>
</clipPath>
</defs>
</svg>
