<svg width="32" height="33" viewBox="0 0 32 33" fill="none" xmlns="http://www.w3.org/2000/svg">
<g clip-path="url(#clip0)">
<path d="M2.78905 0.0370102C2.50863 0.0370102 2.2997 0.277062 2.32458 0.570458L4.68861 28.4262C4.71349 28.7196 4.95485 29.0241 5.22516 29.103L15.2569 32.029C15.5271 32.1078 15.9692 32.1078 16.2395 32.0292L26.3017 29.0983C26.572 29.0196 26.8136 28.7151 26.8385 28.4218L29.2064 0.570458C29.2315 0.277062 29.0223 0.0370102 28.7419 0.0370102H2.78905ZM24.1719 6.42564C24.1496 6.68733 24.111 7.14161 24.0861 7.43501L24.0238 8.16588C23.9987 8.45916 23.963 8.87864 23.9441 9.09791C23.9254 9.31729 23.9075 9.49671 23.9043 9.49671C23.9011 9.49671 23.669 9.49671 23.3886 9.49671H16.2753C15.9949 9.49671 15.7631 9.49671 15.7601 9.49671C15.757 9.49671 15.525 9.49671 15.2446 9.49671H11.4983C11.2179 9.49671 11.009 9.73676 11.0339 10.0302L11.2524 12.5962C11.2773 12.8895 11.5272 13.1296 11.8076 13.1296H15.2447C15.5252 13.1296 15.7571 13.1296 15.7602 13.1296C15.7632 13.1296 15.995 13.1296 16.2754 13.1296H22.1834C22.4638 13.1296 22.8977 13.1296 23.1477 13.1296C23.3974 13.1296 23.5834 13.3437 23.5607 13.6054C23.538 13.8671 23.4991 14.3215 23.4743 14.6148L22.7716 22.8873C22.7465 23.1807 22.7148 23.5555 22.7011 23.7203C22.6872 23.8849 22.4548 24.084 22.1846 24.1628L16.2569 25.8894C15.9867 25.968 15.7621 26.0332 15.7579 26.0341C15.7538 26.0351 15.5293 25.9714 15.259 25.8926L9.32499 24.1629C9.05477 24.0842 8.81331 23.7796 8.78843 23.4862L8.40646 18.9824C8.38158 18.689 8.59072 18.449 8.87113 18.449H9.41268C9.69309 18.449 10.1519 18.449 10.4324 18.449H11.2399C11.5204 18.449 11.7701 18.689 11.7952 18.9824L11.945 20.7455C11.9698 21.0389 12.2116 21.3417 12.4824 21.4185L15.2581 22.2059C15.5287 22.2827 15.7512 22.3456 15.7524 22.3456C15.7537 22.3456 15.9761 22.2826 16.2468 22.2058L19.0274 21.4165C19.2981 21.3397 19.54 21.0367 19.5651 20.7435L19.8666 17.2111C19.8917 16.9177 19.6828 16.6777 19.4024 16.6777H16.2754C15.995 16.6777 15.7632 16.6777 15.7602 16.6777C15.7571 16.6777 15.5252 16.6777 15.2447 16.6777H8.71991C8.4395 16.6777 8.18978 16.4375 8.1649 16.1442L7.42502 7.4349C7.40014 7.14151 7.36149 6.68733 7.33916 6.42553C7.31704 6.16384 7.52821 5.94971 7.80862 5.94971H15.2447C15.5252 5.94971 15.7571 5.94971 15.7602 5.94971C15.7632 5.94971 15.995 5.94971 16.2754 5.94971H23.7026C23.9829 5.94971 24.1942 6.16384 24.1719 6.42564Z" fill="#7C8B9C"/>
</g>
<defs>
<clipPath id="clip0">
<rect width="30.5103" height="32.0513" fill="white" transform="translate(0.510345 0.0370102)"/>
</clipPath>
</defs>
</svg>
