<svg width="36" height="33" viewBox="0 0 36 33" fill="none" xmlns="http://www.w3.org/2000/svg">
<g clip-path="url(#clip0)">
<path d="M26.1207 12.2463L29.0183 6.97341C29.1818 6.67781 29.0829 6.30232 28.8053 6.13055C28.5277 5.95878 28.1665 6.05864 28.0068 6.35424L25.0712 11.6951C22.8315 10.6205 20.3104 10.0213 17.5991 10.0213C14.8879 10.0213 12.3668 10.6205 10.1271 11.6951L7.19147 6.35424C7.02796 6.05864 6.67052 5.95878 6.38913 6.13055C6.10773 6.30232 6.01267 6.67781 6.17618 6.97341L9.07375 12.2463C4.07716 15.0905 0.692859 20.4034 0.133881 26.623H35.0644C34.5054 20.4034 31.1211 15.0905 26.1207 12.2463ZM9.57949 21.47C8.76954 21.47 8.1155 20.7789 8.1155 19.932C8.1155 19.0812 8.77334 18.3941 9.57949 18.3941C10.3894 18.3941 11.0435 19.0852 11.0435 19.932C11.0473 20.7789 10.3894 21.47 9.57949 21.47ZM25.615 21.47C24.805 21.47 24.151 20.7789 24.151 19.932C24.151 19.0812 24.8088 18.3941 25.615 18.3941C26.4249 18.3941 27.079 19.0852 27.079 19.932C27.0828 20.7789 26.4249 21.47 25.615 21.47Z" fill="#7C8B9C"/>
</g>
<defs>
<clipPath id="clip0">
<rect width="34.9539" height="32.0513" fill="white" transform="translate(0.112885 0.0368881)"/>
</clipPath>
</defs>
</svg>
